<svg width="27" height="29" viewBox="0 0 27 29" fill="none" xmlns="http://www.w3.org/2000/svg">
<path fill-rule="evenodd" clip-rule="evenodd" d="M13.5 0C6.04688 0 0 6.49479 0 14.5C0 22.5052 6.04688 29 13.5 29C20.9385 29 27 22.5052 27 14.5C27 6.49479 20.9385 0 13.5 0ZM22.4168 6.68329C24.0789 8.85749 24.9987 11.5769 25.0234 14.39C24.6431 14.3115 20.8361 13.4777 16.9999 13.9973C16.911 13.7919 16.8379 13.572 16.7501 13.3521C16.5115 12.7472 16.2579 12.1493 15.9896 11.5589C20.2354 9.70292 22.1681 7.03008 22.4168 6.68329V6.68329ZM13.5 2.13996C16.4284 2.13996 19.1081 3.31808 21.1433 5.25263C20.9385 5.56679 19.1959 8.06804 15.0964 9.71863C13.2064 5.99213 11.1139 2.93988 10.791 2.46863C11.679 2.24591 12.5881 2.13521 13.5 2.13875V2.13996ZM8.595 3.30238C8.90212 3.74342 10.9519 6.81017 12.87 10.4581C7.48125 12 2.7225 11.9685 2.21063 11.9685C2.95763 8.13087 5.37412 4.93846 8.595 3.30238ZM1.962 14.5157V14.1387C2.46037 14.1544 8.05275 14.233 13.8083 12.377C14.1446 13.0693 14.4517 13.7762 14.7442 14.4843C14.598 14.5314 14.4371 14.5785 14.2909 14.6257C8.34638 16.6859 5.18288 22.3155 4.91963 22.788C3.01546 20.5181 1.96178 17.571 1.962 14.5157V14.5157ZM13.5 26.8927C10.9373 26.897 8.44722 25.978 6.42825 24.2827C6.633 23.8259 8.97525 18.9817 15.4766 16.5445C15.5059 16.5288 15.5216 16.5288 15.5497 16.5131C17.1754 21.0262 17.8335 24.8168 18.0101 25.9018C16.6185 26.5471 15.0964 26.8927 13.5 26.8927ZM19.9283 24.7696C19.8113 24.0144 19.1959 20.3979 17.6873 15.9464C21.3041 15.3337 24.4665 16.3403 24.8625 16.4817C24.3641 19.9254 22.5191 22.8979 19.9283 24.7696Z" fill="#A0A0A0"/>
</svg>
