<svg width="24" height="26" viewBox="0 0 24 26" fill="none" xmlns="http://www.w3.org/2000/svg">
<path fill-rule="evenodd" clip-rule="evenodd" d="M12 0C5.37 0 0 5.96465 0 13.3288C0 19.2268 3.435 24.2085 8.205 25.9745C8.805 26.0912 9.03 25.6913 9.03 25.3414C9.03 25.0249 9.015 23.9752 9.015 22.8589C6 23.4754 5.22 22.0425 4.98 21.2928C4.845 20.9096 4.26 19.7267 3.75 19.4101C3.33 19.1602 2.73 18.5437 3.735 18.5271C4.68 18.5104 5.355 19.4934 5.58 19.8933C6.66 21.9092 8.385 21.3428 9.075 20.9929C9.18 20.1265 9.495 19.5434 9.84 19.2102C7.17 18.8769 4.38 17.7273 4.38 12.6291C4.38 11.1795 4.845 9.97995 5.61 9.04694C5.49 8.71372 5.07 7.34751 5.73 5.5148C5.73 5.5148 6.735 5.16492 9.03 6.881C9.99 6.5811 11.01 6.43116 12.03 6.43116C13.05 6.43116 14.07 6.5811 15.03 6.881C17.325 5.14826 18.33 5.5148 18.33 5.5148C18.99 7.34751 18.57 8.71372 18.45 9.04694C19.215 9.97995 19.68 11.1629 19.68 12.6291C19.68 17.744 16.875 18.8769 14.205 19.2102C14.64 19.6267 15.015 20.4264 15.015 21.676C15.015 23.4587 15 24.8916 15 25.3414C15 25.6913 15.225 26.1078 15.825 25.9745C18.2072 25.0812 20.2772 23.3806 21.7437 21.1121C23.2101 18.8437 23.9993 16.1215 24 13.3288C24 5.96465 18.63 0 12 0Z" fill="#A0A0A0"/>
</svg>
