<svg width="27" height="29" viewBox="0 0 27 29" fill="none" xmlns="http://www.w3.org/2000/svg">
<path fill-rule="evenodd" clip-rule="evenodd" d="M10.0292 10.1051H15.043V12.7876C15.7653 11.2448 17.6175 9.85855 20.3999 9.85855C25.7337 9.85855 27 12.9297 27 18.5644V29H21.6V19.8476C21.6 16.6388 20.8778 14.8292 19.0391 14.8292C16.4889 14.8292 15.4292 16.7794 15.4292 19.8462V29H10.0292V10.1051V10.1051ZM0.7695 28.7535H6.1695V9.85855H0.7695V28.7535V28.7535ZM6.94305 3.6975C6.94325 4.18365 6.85349 4.66499 6.67897 5.11355C6.50446 5.56211 6.24868 5.96894 5.9265 6.3104C5.27364 7.00731 4.38994 7.3974 3.4695 7.395C2.55068 7.39434 1.66902 7.00524 1.0152 6.31185C0.694185 5.96923 0.439271 5.56195 0.265064 5.11333C0.090857 4.66471 0.000781828 4.18358 0 3.6975C0 2.71585 0.3645 1.77625 1.01655 1.08315C1.66979 0.38883 2.55182 -0.000433856 3.47085 3.62884e-07C4.39155 3.62884e-07 5.27445 0.39005 5.9265 1.08315C6.5772 1.77625 6.94305 2.71585 6.94305 3.6975Z" fill="#A0A0A0"/>
</svg>
