<svg width="29" height="23" viewBox="0 0 29 23" fill="none" xmlns="http://www.w3.org/2000/svg">
<path d="M29 3.14177V20.9089C29 22.0637 28.1155 22.9987 27.0232 22.9987H22.4085V11.1548L14.5 17.4268L6.59146 11.1548V23H1.97683C1.71713 23 1.45997 22.9459 1.22005 22.8408C0.980134 22.7357 0.762156 22.5817 0.578574 22.3875C0.394992 22.1933 0.249405 21.9627 0.150131 21.709C0.0508568 21.4553 -0.000158373 21.1835 3.69329e-07 20.9089V3.14177C3.69329e-07 0.557618 2.79004 -0.917762 4.74513 0.632984L6.59146 2.09814L14.5 8.36755L22.4085 2.09559L24.2549 0.632984C26.2088 -0.916484 29 0.557618 29 3.14177Z" fill="#A0A0A0"/>
</svg>
